<svg width="122" height="26" viewBox="0 0 122 26" fill="none" xmlns="http://www.w3.org/2000/svg">
<path d="M1.51705 21V3.54545H5.20739V10.7472H12.6989V3.54545H16.3807V21H12.6989V13.7898H5.20739V21H1.51705ZM21.5966 25.9091C21.1364 25.9091 20.7045 25.8722 20.3011 25.7983C19.9034 25.7301 19.5739 25.642 19.3125 25.5341L20.1307 22.8239C20.5568 22.9545 20.9403 23.0256 21.2812 23.0369C21.6278 23.0483 21.9261 22.9688 22.1761 22.7983C22.4318 22.6278 22.6392 22.3381 22.7983 21.929L23.0114 21.375L18.3153 7.90909H22.1335L24.8438 17.5227H24.9801L27.7159 7.90909H31.5597L26.4716 22.4148C26.2273 23.1193 25.8949 23.733 25.4744 24.2557C25.0597 24.7841 24.5341 25.1903 23.8977 25.4744C23.2614 25.7642 22.4943 25.9091 21.5966 25.9091ZM33.4176 25.9091V7.90909H36.9972V10.108H37.1591C37.3182 9.75568 37.5483 9.39773 37.8494 9.03409C38.1563 8.66477 38.554 8.35795 39.0426 8.11364C39.5369 7.86364 40.1506 7.73864 40.8835 7.73864C41.8381 7.73864 42.7188 7.98864 43.5256 8.48864C44.3324 8.98295 44.9773 9.73011 45.4602 10.7301C45.9432 11.7244 46.1847 12.9716 46.1847 14.4716C46.1847 15.9318 45.9489 17.1648 45.4773 18.1705C45.0114 19.1705 44.375 19.929 43.5682 20.446C42.767 20.9574 41.8693 21.2131 40.875 21.2131C40.1705 21.2131 39.571 21.0966 39.0767 20.8636C38.5881 20.6307 38.1875 20.3381 37.875 19.9858C37.5625 19.6278 37.3239 19.267 37.1591 18.9034H37.0483V25.9091H33.4176ZM36.9716 14.4545C36.9716 15.233 37.0795 15.9119 37.2955 16.4915C37.5114 17.071 37.8239 17.5227 38.233 17.8466C38.642 18.1648 39.1392 18.3239 39.7244 18.3239C40.3153 18.3239 40.8153 18.1619 41.2244 17.8381C41.6335 17.5085 41.9432 17.054 42.1534 16.4744C42.3693 15.8892 42.4773 15.2159 42.4773 14.4545C42.4773 13.6989 42.3722 13.0341 42.1619 12.4602C41.9517 11.8864 41.642 11.4375 41.233 11.1136C40.8239 10.7898 40.321 10.6278 39.7244 10.6278C39.1335 10.6278 38.6335 10.7841 38.2244 11.0966C37.821 11.4091 37.5114 11.8523 37.2955 12.4261C37.0795 13 36.9716 13.6761 36.9716 14.4545ZM52.2358 13.4318V21H48.6051V7.90909H52.0653V10.2188H52.2188C52.5085 9.45739 52.9943 8.85511 53.6761 8.41193C54.358 7.96307 55.1847 7.73864 56.1562 7.73864C57.0653 7.73864 57.858 7.9375 58.5341 8.33523C59.2102 8.73295 59.7358 9.30114 60.1108 10.0398C60.4858 10.7727 60.6733 11.6477 60.6733 12.6648V21H57.0426V13.3125C57.0483 12.5114 56.8438 11.8864 56.429 11.4375C56.0142 10.983 55.4432 10.7557 54.7159 10.7557C54.2273 10.7557 53.7955 10.8608 53.4205 11.071C53.0511 11.2812 52.7614 11.5881 52.5511 11.9915C52.3466 12.3892 52.2415 12.8693 52.2358 13.4318ZM69.4496 21.2557C68.1257 21.2557 66.9808 20.9744 66.0149 20.4119C65.0547 19.8437 64.3132 19.054 63.7905 18.0426C63.2678 17.0256 63.0064 15.8466 63.0064 14.5057C63.0064 13.1534 63.2678 11.9716 63.7905 10.9602C64.3132 9.94318 65.0547 9.15341 66.0149 8.59091C66.9808 8.02273 68.1257 7.73864 69.4496 7.73864C70.7734 7.73864 71.9155 8.02273 72.8757 8.59091C73.8416 9.15341 74.5859 9.94318 75.1087 10.9602C75.6314 11.9716 75.8928 13.1534 75.8928 14.5057C75.8928 15.8466 75.6314 17.0256 75.1087 18.0426C74.5859 19.054 73.8416 19.8437 72.8757 20.4119C71.9155 20.9744 70.7734 21.2557 69.4496 21.2557ZM69.4666 18.4432C70.0689 18.4432 70.5717 18.2727 70.9751 17.9318C71.3786 17.5852 71.6825 17.1136 71.8871 16.517C72.0973 15.9205 72.2024 15.2415 72.2024 14.4801C72.2024 13.7188 72.0973 13.0398 71.8871 12.4432C71.6825 11.8466 71.3786 11.375 70.9751 11.0284C70.5717 10.6818 70.0689 10.5085 69.4666 10.5085C68.8587 10.5085 68.3473 10.6818 67.9325 11.0284C67.5234 11.375 67.2138 11.8466 67.0036 12.4432C66.799 13.0398 66.6967 13.7188 66.6967 14.4801C66.6967 15.2415 66.799 15.9205 67.0036 16.517C67.2138 17.1136 67.5234 17.5852 67.9325 17.9318C68.3473 18.2727 68.8587 18.4432 69.4666 18.4432ZM89.1456 11.642L85.8217 11.8466C85.7649 11.5625 85.6428 11.3068 85.4553 11.0795C85.2678 10.8466 85.0206 10.6619 84.7138 10.5256C84.4126 10.3835 84.0518 10.3125 83.6314 10.3125C83.0689 10.3125 82.5945 10.4318 82.2081 10.6705C81.8217 10.9034 81.6286 11.2159 81.6286 11.608C81.6286 11.9205 81.7536 12.1847 82.0036 12.4006C82.2536 12.6165 82.6825 12.7898 83.2905 12.9205L85.6598 13.3977C86.9325 13.6591 87.8814 14.0795 88.5064 14.6591C89.1314 15.2386 89.4439 16 89.4439 16.9432C89.4439 17.8011 89.1911 18.554 88.6854 19.2017C88.1854 19.8494 87.4979 20.3551 86.6229 20.7188C85.7536 21.0767 84.7507 21.2557 83.6143 21.2557C81.8814 21.2557 80.5007 20.8949 79.4723 20.1733C78.4496 19.446 77.8501 18.4574 77.674 17.2074L81.245 17.0199C81.353 17.5483 81.6143 17.9517 82.0291 18.2301C82.4439 18.5028 82.9751 18.6392 83.6229 18.6392C84.2592 18.6392 84.7706 18.517 85.157 18.2727C85.549 18.0227 85.7479 17.7017 85.7536 17.3097C85.7479 16.9801 85.6087 16.7102 85.3359 16.5C85.0632 16.2841 84.6428 16.1193 84.0746 16.0057L81.8075 15.554C80.5291 15.2983 79.5774 14.8551 78.9524 14.2244C78.3331 13.5937 78.0234 12.7898 78.0234 11.8125C78.0234 10.9716 78.2507 10.2472 78.7053 9.6392C79.1655 9.03125 79.8104 8.5625 80.6399 8.23295C81.4751 7.90341 82.4524 7.73864 83.5717 7.73864C85.2251 7.73864 86.5263 8.08807 87.4751 8.78693C88.4297 9.4858 88.9865 10.4375 89.1456 11.642ZM91.7301 21V7.90909H95.3608V21H91.7301ZM93.554 6.22159C93.0142 6.22159 92.5511 6.04261 92.1648 5.68466C91.7841 5.32102 91.5938 4.88636 91.5938 4.38068C91.5938 3.88068 91.7841 3.4517 92.1648 3.09375C92.5511 2.73011 93.0142 2.54829 93.554 2.54829C94.0938 2.54829 94.554 2.73011 94.9347 3.09375C95.321 3.4517 95.5142 3.88068 95.5142 4.38068C95.5142 4.88636 95.321 5.32102 94.9347 5.68466C94.554 6.04261 94.0938 6.22159 93.554 6.22159ZM109.161 11.642L105.837 11.8466C105.781 11.5625 105.658 11.3068 105.471 11.0795C105.283 10.8466 105.036 10.6619 104.729 10.5256C104.428 10.3835 104.067 10.3125 103.647 10.3125C103.085 10.3125 102.61 10.4318 102.224 10.6705C101.837 10.9034 101.644 11.2159 101.644 11.608C101.644 11.9205 101.769 12.1847 102.019 12.4006C102.269 12.6165 102.698 12.7898 103.306 12.9205L105.675 13.3977C106.948 13.6591 107.897 14.0795 108.522 14.6591C109.147 15.2386 109.46 16 109.46 16.9432C109.46 17.8011 109.207 18.554 108.701 19.2017C108.201 19.8494 107.513 20.3551 106.638 20.7188C105.769 21.0767 104.766 21.2557 103.63 21.2557C101.897 21.2557 100.516 20.8949 99.4879 20.1733C98.4652 19.446 97.8658 18.4574 97.6896 17.2074L101.261 17.0199C101.369 17.5483 101.63 17.9517 102.045 18.2301C102.46 18.5028 102.991 18.6392 103.638 18.6392C104.275 18.6392 104.786 18.517 105.173 18.2727C105.565 18.0227 105.763 17.7017 105.769 17.3097C105.763 16.9801 105.624 16.7102 105.352 16.5C105.079 16.2841 104.658 16.1193 104.09 16.0057L101.823 15.554C100.545 15.2983 99.593 14.8551 98.968 14.2244C98.3487 13.5937 98.0391 12.7898 98.0391 11.8125C98.0391 10.9716 98.2663 10.2472 98.7209 9.6392C99.1811 9.03125 99.826 8.5625 100.656 8.23295C101.491 7.90341 102.468 7.73864 103.587 7.73864C105.241 7.73864 106.542 8.08807 107.491 8.78693C108.445 9.4858 109.002 10.4375 109.161 11.642Z" fill="black"/>
<path d="M111.278 2.68217V1.90909H115.34V2.68217H113.767V7H112.852V2.68217H111.278ZM116.123 1.90909H117.252L118.763 5.59801H118.823L120.334 1.90909H121.463V7H120.578V3.50249H120.531L119.124 6.98509H118.462L117.055 3.49503H117.008V7H116.123V1.90909Z" fill="black"/>
</svg>
